#!OML:ASF H:\Terrain\Patient Classification 1\Walking\liu\liu.ASF
:FULLY-SPECIFIED
:DEGREES
158
root 8.55156 15.9584 -3.17124 12.1972 -7.12118 -7.27023
lowerback -6.22286 4.80329 1.93835
upperback 0.655072 6.09741 4.10326
thorax 3.91058 3.03007 3.74362
lowerneck -19.2614 -6.36297 -14.8276
upperneck 13.5546 -7.19423 13.999
head 8.45944 -2.87202 6.26964
rclavicle 6.6891e-014 3.49861e-014
rhumerus 3.93494 40.9802 -70.0401
rradius 48.0172
rwrist -22.1134
rhand -33.818 -19.0227
rfingers 7.12502
rthumb -7.00385 -48.8868
lclavicle 6.6891e-014 3.49861e-014
lhumerus -68.5019 10.6074 50.4821
lradius 11.9195
lwrist -30.0203
lhand -14.1687 -31.1134
lfingers 7.12502
lthumb 11.9664 -1.47546
rfemur 22.4524 5.23795 28.8785
rtibia -3.18055e-015
rfoot -2.77387 0.778521
rtoes -29.365
lfemur -52.7964 5.5469 -13.3645
ltibia 30.2805
lfoot -11.8866 4.86678
ltoes -21.8041
159
root 8.5869 15.9135 -2.8677 12.1406 -6.82769 -7.98591
lowerback -6.35602 4.95084 2.92492
upperback 0.730566 6.20073 4.20121
thorax 4.15442 3.09784 3.33464
lowerneck -19.2687 -6.56043 -15.0725
upperneck 13.3135 -7.41662 14.2105
head 8.43544 -2.97012 6.34809
rclavicle -6.11263e-014 2.62396e-014
rhumerus 4.33014 40.7572 -69.6539
rradius 48.019
rwrist -22.4231
rhand -34.1298 -18.6837
rfingers 7.12502
rthumb -7.30483 -48.5377
lclavicle -6.11263e-014 2.62396e-014
lhumerus -69.1152 11.9204 46.4898
lradius 11.4957
lwrist -33.5376
lhand -14.2361 -31.6354
lfingers 7.12502
lthumb 11.9014 -1.99364
rfemur 23.4998 5.07387 29.4857
rtibia 7.63333e-014
rfoot -1.00013 0.555262
rtoes -28.9239
lfemur -53.5212 5.73806 -12.9307
ltibia 32.7128
lfoot -7.88485 4.29787
ltoes -22.922
160
root 8.62515 15.8828 -2.57895 12.2034 -6.66728 -7.7524
lowerback -6.50414 5.02206 2.87155
upperback 0.708142 6.29979 4.0202
thorax 4.22554 3.14698 3.20012
lowerneck -19.7358 -6.79542 -14.9045
upperneck 13.4925 -7.69776 13.9937
head 8.60404 -3.09566 6.19903
rclavicle 1.19271e-015 5.56597e-015
rhumerus 4.6308 40.5994 -69.3429
rradius 48.002
rwrist -22.6271
rhand -34.1571 -18.2187
rfingers 7.12502
rthumb -7.33123 -48.0716
lclavicle 1.19271e-015 5.56597e-015
lhumerus -69.5938 13.1342 42.7495
lradius 10.9718
lwrist -36.7074
lhand -13.4906 -31.143
lfingers 7.12502
lthumb 12.6202 -1.54423
rfemur 24.271 4.91262 29.0125
rtibia -1.59028e-014
rfoot 1.05215 0.015165
rtoes -28.0544
lfemur -54.4203 5.7288 -13.4216
ltibia 35.0839
lfoot -4.52498 3.58358
ltoes -21.255
161
root 8.62343 15.827 -2.28885 12.494 -5.9006 -7.51634
lowerback -6.91359 4.80484 2.3489
upperback 0.328895 6.0525 3.94316
thorax 4.02045 3.01589 3.39625
lowerneck -19.8115 -6.88604 -14.5892
upperneck 13.9027 -7.89994 13.7722
head 8.76277 -3.1908 6.04329
rclavicle -2.13694e-014 -4.77083e-015
rhumerus 4.01096 40.6509 -69.7893
rradius 48.0465
rwrist -22.5286
rhand -34.1385 -17.8807
rfingers 7.12502
rthumb -7.3133 -47.7343
lclavicle -2.13694e-014 -4.77083e-015
lhumerus -70.3949 13.7938 39.3495
lradius 10.5994
lwrist -39.1975
lhand -12.7191 -30.0842
lfingers 7.12502
lthumb 13.3639 -0.53276
rfemur 24.9074 4.19354 28.6866
rtibia 5.40694e-014
rfoot 3.37893 -0.905742
rtoes -27.6816
lfemur -55.6015 5.44692 -13.9327
ltibia 37.5359
lfoot -2.79875 2.87463
ltoes -20.2028
162
root 8.6387 15.7782 -1.99664 12.2629 -6.00285 -7.28261
lowerback -6.76478 4.91585 2.01429
upperback 0.198915 6.24575 3.83504
thorax 3.77062 3.10946 3.46233
lowerneck -18.9869 -6.91827 -15.1808
upperneck 13.239 -7.9831 14.5413
head 8.47474 -3.22309 6.40045
rclavicle -5.35725e-014 -3.89618e-014
rhumerus 3.08156 40.2031 -70.4729
rradius 48.1416
rwrist -22.1169
rhand -33.9031 -18.992
rfingers 7.12502
rthumb -7.08606 -48.8534
lclavicle -5.35725e-014 -3.89618e-014
lhumerus -71.3373 15.1209 34.7974
lradius 10.3057
lwrist -43.2978
lhand -12.3783 -29.8966
lfingers 7.12502
lthumb 13.6924 -0.367041
rfemur 26.0428 4.2134 28.3003
rtibia 2.22639e-014
rfoot 6.37331 -2.46069
rtoes -26.6787
lfemur -55.7821 5.60878 -14.2116
ltibia 39.8367
lfoot -1.95515 3.16605
ltoes -15.4005
